<?xml version="1.0" encoding="utf-8"?>
<!-- Generator: Adobe Illustrator 17.0.0, SVG Export Plug-In . SVG Version: 6.00 Build 0)  -->
<!DOCTYPE svg PUBLIC "-//W3C//DTD SVG 1.1//EN" "http://www.w3.org/Graphics/SVG/1.1/DTD/svg11.dtd">
<svg version="1.1" id="Camada_1" xmlns="http://www.w3.org/2000/svg" xmlns:xlink="http://www.w3.org/1999/xlink" x="0px" y="0px"
	 width="702.978px" height="183.67px" viewBox="0 0 702.978 183.67" enable-background="new 0 0 702.978 183.67"
	 xml:space="preserve">
<g>
	<g>
		<linearGradient id="SVGID_1_" gradientUnits="userSpaceOnUse" x1="605.3497" y1="141.0804" x2="602.8484" y2="58.8007">
			<stop  offset="0" style="stop-color:#6AB253"/>
			<stop  offset="1" style="stop-color:#8CC5B7"/>
		</linearGradient>
		<path fill-rule="evenodd" clip-rule="evenodd" fill="url(#SVGID_1_)" d="M606.639,97.959l-0.054-25.24c1.779,0,3.046,0,6.31,0
			h17.818l-0.028-13.24h-37.244c0,0,0.013,7.055,0.036,17.668l0.144,66.721h13.116l-0.07-32.791h24.129l-0.028-13.117H606.639
			L606.639,97.959z M525.638,59.479h39.966c9.953,0,20.664,0,20.664,0l0.136,64.714h-13.24l-0.097-45.907
			c-0.008-3.598-0.012-5.691-0.012-5.691H546.7c-3.151,0-7.671,0-7.671,0l0.109,51.598h-13.363l-0.097-45.907
			C525.655,67.939,525.638,59.479,525.638,59.479L525.638,59.479z M504.686,39.805l0.179,84.388h13.487l-0.179-84.388H504.686
			L504.686,39.805z M651.146,72.595h33.655c1.873,0,4.826,0,4.826,0l0.071,33.533c0.006,3.069,0.013,5.073,0.011,5.073
			l-12.695-0.124l0.028,13.116h25.935c0,0-0.02-9.304-0.037-17.57l-0.099-47.144c0,0-9.348,0-17.694,0h-29.698
			c-8.287,0-17.571,0-17.571,0l0.137,64.715c0,0,19.676,0,26.124,0v-13.116h-12.905l-0.078-33.532
			C651.153,75.645,651.146,72.595,651.146,72.595z"/>
		<path fill-rule="evenodd" clip-rule="evenodd" fill="#000202" d="M467.511,130.628c5.65,0,16.58,0,16.58,0l-0.114-54.321
			c-0.004-1.887-0.007-3.712-0.007-3.712h-33.286c-2.494,0-4.344,0-4.949,0l0.07,33.285c0.006,2.838,0.005,5.32,0.011,5.32h21.655
			l0.027,12.992h-14.725c-10.085,0-20.045,0-20.045,0l-0.137-64.714c0,0,9.281,0,17.571,0h29.697c8.268,0,17.447,0,17.447,0
			l0.179,84.389c0,0-19.921,0-29.45,0h-0.495L467.511,130.628L467.511,130.628z M383.853,124.193h-13.24l-0.136-64.714
			c0,0,9.399,0,17.57,0h37.368l0.028,13.116h-41.7c0,0,0.007,3.051,0.011,4.95L383.853,124.193L383.853,124.193z M311.61,72.595
			h33.655c1.873,0,4.826,0,4.826,0l0.071,33.533c0.007,3.069,0.013,5.073,0.011,5.073l-12.695-0.124l0.028,13.116h25.935
			c0,0-0.02-9.304-0.037-17.57l-0.099-47.144c0,0-9.348,0-17.694,0h-29.698c-8.287,0-17.571,0-17.571,0l0.137,64.715
			c0,0,19.676,0,26.124,0v-13.116h-12.905l-0.078-33.532C311.616,75.645,311.61,72.595,311.61,72.595L311.61,72.595z M255.28,59.479
			h17.076c9.266,0,18.808,0,18.808,0l0.136,64.714c0,0-10.786,0-19.302,0h-46.402l-0.178-84.389h13.24l0.151,71.397h39.225
			c0,0-0.004-1.702-0.011-5.073l-0.071-33.533c0,0-3.016,0-5.569,0h-17.075L255.28,59.479z"/>
		<linearGradient id="SVGID_2_" gradientUnits="userSpaceOnUse" x1="438.0233" y1="143.8821" x2="437.7508" y2="130.6723">
			<stop  offset="0" style="stop-color:#6AB253"/>
			<stop  offset="1" style="stop-color:#8CC5B7"/>
		</linearGradient>
		<path fill-rule="evenodd" clip-rule="evenodd" fill="url(#SVGID_2_)" d="M447.478,130.628h13.24v13.24h-13.24V130.628
			L447.478,130.628z M436.18,130.628h7.376v7.376h-7.376V130.628L436.18,130.628z M428.803,138.004h5.863v5.863h-5.863V138.004
			L428.803,138.004z M422.94,132.141h4.448v4.448h-4.448V132.141L422.94,132.141z M418.492,127.693h3.621v3.621h-3.621V127.693
			L418.492,127.693z M414.871,132.167h2.767v2.768h-2.767V132.167z"/>
	</g>
	<linearGradient id="SVGID_3_" gradientUnits="userSpaceOnUse" x1="96.33" y1="178.0217" x2="107.43" y2="5.6439">
		<stop  offset="0" style="stop-color:#6AB253"/>
		<stop  offset="1" style="stop-color:#8CC5B7"/>
	</linearGradient>
	<path fill-rule="evenodd" clip-rule="evenodd" fill="url(#SVGID_3_)" d="M203.735,148.171V35.499L127.334,5.788v23.538
		l55.95,21.994v80.452l-70.999,22.573V0L0,35.885v111.514l77.172,30.097v-24.309l-56.722-20.499V52.091l71.384-23.923V183.67
		L203.735,148.171z"/>
</g>
</svg>
